# xmcd CD database file
#
# Track frame offsets:
#	150
#	7435
#	20170
#	27204
#	46195
#	50435
#	74865
#	77830
#	105782
#	139579
#	142689
#	204592
#	212870
#	265383
#
# Disc length: 4001 seconds
#
# Revision: 0
# Processed by: cddbd v1.5.1PL2 Copyright (c) Steve Scherf et al.
# Submitted via: CDex 1.51
#
DISCID=cb0f9f0e
DTITLE=Chucho Valdés - Lo mejor de la timba cubana - Volumen I
DYEAR=1900
DGENRE=Salsa
TTITLE0=Presentacion y saludo
TTITLE1=Elegua
TTITLE2=Saludo de Merceditas Valdes
TTITLE3=Elegua
TTITLE4=Presentacion
TTITLE5=Chango
TTITLE6=Presentacion
TTITLE7=Ochun
TTITLE8=A jugar a la verdad
TTITLE9=Presentacion
TTITLE10=Almendra
TTITLE11=Presentacion
TTITLE12=Fefita
TTITLE13=Descarga
EXTD=
EXTT0=
EXTT1=
EXTT2=
EXTT3=
EXTT4=
EXTT5=
EXTT6=
EXTT7=
EXTT8=
EXTT9=
EXTT10=
EXTT11=
EXTT12=
EXTT13=
PLAYORDER=
